<?xml version="1.0" standalone="no"?>
<!DOCTYPE svg PUBLIC "-//W3C//DTD SVG 20010904//EN"
 "http://www.w3.org/TR/2001/REC-SVG-20010904/DTD/svg10.dtd">
<svg version="1.0" xmlns="http://www.w3.org/2000/svg"
 width="324.000000pt" height="396.000000pt" viewBox="0 0 324.000000 396.000000"
 preserveAspectRatio="xMidYMid meet">
<metadata>
Created by potrace 1.10, written by Peter Selinger 2001-2011
</metadata>
<g transform="translate(0.000000,396.000000) scale(0.100000,-0.100000)"
fill="#8ab3ac" stroke="none">
<path d="M1278 3602 c-289 -192 -470 -310 -848 -551 -102 -66 -211 -137 -242
-160 l-58 -41 0 -879 0 -879 38 -29 c34 -27 356 -232 922 -588 124 -78 271
-171 327 -208 166 -108 183 -113 258 -78 42 19 1225 764 1332 838 52 37 63 50
69 81 4 20 4 419 1 886 l-6 850 -23 22 c-21 21 -336 227 -618 405 -63 40 -270
176 -459 301 -236 157 -351 228 -370 227 -17 0 -131 -70 -323 -197z m424 61
c144 -99 428 -287 568 -375 74 -48 185 -119 247 -160 62 -40 183 -119 270
-176 87 -56 170 -112 185 -125 l27 -22 2 -728 c0 -401 -2 -731 -5 -734 -3 -4
-250 -8 -549 -10 -298 -3 -564 -8 -592 -11 -27 -4 -86 -5 -130 -2 -77 5 -80 6
-83 31 -2 20 2 28 20 33 13 3 136 7 273 8 175 1 225 3 165 8 -47 4 -169 6
-272 6 -149 -1 -189 1 -193 12 -3 8 -5 53 -5 101 0 83 2 90 28 116 27 27 28
27 122 22 52 -4 115 -14 140 -23 58 -21 198 -13 217 13 10 12 10 20 1 30 -16
19 -4 27 22 13 32 -17 84 -9 88 14 5 25 -12 34 -85 42 -70 7 -86 24 -23 24 23
0 40 5 40 11 0 8 5 8 15 -1 9 -8 15 -8 15 -2 0 6 12 15 28 20 15 6 21 11 15
11 -7 1 -13 8 -13 16 0 8 -5 15 -11 15 -17 0 -41 30 -36 44 7 17 -13 26 -54
26 -18 0 -28 4 -24 10 3 5 16 10 28 10 12 0 37 9 55 20 31 19 33 24 30 63 l-4
42 -82 -3 c-51 -1 -82 1 -82 8 0 5 9 10 20 10 11 0 20 7 20 15 0 8 4 15 8 15
16 0 92 71 92 86 0 19 -29 18 -52 -3 -16 -14 -18 -14 -18 -1 0 14 -57 29 -113
29 -10 0 -17 5 -15 10 2 6 7 10 12 9 5 -1 12 2 15 7 3 4 23 21 44 36 86 65 95
103 18 77 -64 -21 -69 -9 -18 45 26 26 44 52 41 57 -10 16 -173 -7 -187 -26
-6 -7 -7 -6 -5 3 2 8 24 22 48 31 31 12 46 24 48 39 2 13 11 21 22 21 28 0 50
11 50 25 0 16 -64 29 -87 17 -27 -13 -90 -15 -98 -3 -3 6 1 11 9 11 20 0 76
70 76 96 0 14 -8 24 -22 27 -29 8 -110 -10 -123 -27 -14 -18 -53 -26 -58 -12
-3 7 8 21 24 32 16 10 29 22 29 27 0 4 5 7 11 7 6 0 9 -7 5 -15 -12 -33 13
-12 42 34 27 44 28 50 12 54 -9 2 -25 0 -35 -5 -12 -8 -20 -6 -26 3 -6 9 -3
15 6 17 23 5 18 20 -7 24 -21 3 -21 4 10 39 53 61 44 71 -37 40 -34 -13 -53
-15 -60 -8 -7 7 -12 6 -16 -5 -4 -10 -15 -13 -31 -10 -19 3 -22 7 -13 18 6 8
15 11 20 8 5 -3 9 0 9 6 0 7 6 10 14 7 8 -3 17 1 20 9 3 8 12 14 21 14 8 0 15
7 15 15 0 13 -4 14 -21 5 -34 -19 -31 -6 6 30 33 32 45 60 26 60 -22 0 -78
-25 -95 -42 -24 -25 -33 -16 -12 14 9 12 16 29 16 38 0 8 9 21 20 28 22 14 26
32 9 49 -8 8 -18 4 -36 -13 -45 -42 -59 -25 -22 26 21 28 21 29 3 47 -16 16
-17 16 -11 1 3 -10 2 -20 -2 -23 -10 -6 -21 18 -21 46 0 10 -5 19 -10 19 -6 0
-8 11 -4 27 6 21 4 25 -9 20 -11 -4 -17 3 -21 29 -8 42 -24 44 -39 4 -6 -16
-15 -30 -20 -30 -5 0 -6 -15 -2 -32 6 -27 5 -31 -6 -20 -20 19 -30 14 -25 -13
4 -22 2 -25 -13 -20 -15 4 -19 0 -19 -22 0 -16 7 -36 16 -45 17 -20 3 -25 -16
-6 -9 9 -12 9 -12 0 0 -7 -9 -12 -20 -12 -29 0 -25 -21 12 -51 20 -17 29 -32
25 -42 -5 -14 -11 -14 -59 4 -29 10 -56 19 -60 19 -21 0 -3 -32 37 -68 46 -41
57 -59 29 -48 -9 4 -23 1 -31 -6 -13 -10 -19 -8 -37 13 -29 33 -53 42 -60 22
-10 -25 13 -82 37 -94 22 -12 22 -12 0 13 -13 13 -22 35 -22 49 1 20 2 21 6 4
3 -11 23 -38 44 -59 21 -22 38 -41 36 -42 -5 -5 -82 -5 -119 1 -33 5 -38 3
-38 -14 0 -11 5 -23 10 -26 6 -3 10 -10 10 -15 0 -5 -16 0 -35 12 -20 11 -38
18 -41 15 -9 -8 14 -45 35 -56 38 -21 112 -42 122 -35 7 4 10 1 7 -7 -3 -10
-23 -15 -64 -16 -47 -1 -103 -6 -143 -12 -14 -2 67 -71 105 -90 43 -22 50 -41
16 -41 -19 0 -114 23 -145 36 -16 6 -18 2 -15 -22 2 -24 13 -35 61 -60 68 -36
92 -57 62 -54 -33 4 -41 0 -25 -10 12 -8 11 -10 -7 -10 -13 0 -23 5 -23 10 0
11 -73 14 -83 3 -8 -7 49 -65 80 -82 12 -6 36 -11 53 -11 21 0 30 -4 27 -12
-2 -7 -9 -12 -15 -11 -6 2 -9 -4 -6 -12 5 -12 0 -14 -27 -9 -19 4 -42 11 -52
16 -10 5 -21 7 -25 4 -3 -3 -16 1 -30 10 -17 11 -27 13 -35 5 -8 -8 -7 -11 3
-11 7 0 10 -3 7 -7 -4 -3 -1 -13 7 -22 8 -9 16 -27 18 -41 2 -19 16 -31 56
-50 28 -14 52 -31 52 -39 0 -10 -12 -12 -52 -8 -29 3 -62 8 -73 11 -11 2 -24
5 -30 5 -5 1 -3 6 5 11 11 7 5 10 -22 10 -29 0 -38 4 -38 18 -1 16 -1 16 -14
-1 -8 -10 -20 -15 -30 -11 -24 9 -20 -25 6 -53 12 -13 29 -23 39 -23 9 0 19
-9 22 -20 3 -12 22 -28 46 -38 22 -9 41 -20 41 -24 0 -13 -31 -9 -92 13 -33
11 -65 18 -72 16 -17 -7 -8 -57 10 -57 7 0 11 -6 8 -14 -6 -16 32 -46 58 -46
10 0 18 -5 18 -10 0 -7 -19 -8 -49 -5 -51 6 -78 -8 -38 -19 17 -5 19 -8 8 -15
-31 -20 33 -71 90 -71 22 0 25 -15 5 -23 -8 -3 -41 -3 -73 -1 -51 5 -56 4 -41
-9 10 -8 15 -16 13 -19 -11 -10 21 -27 60 -31 50 -5 129 -37 118 -47 -4 -5
-39 -13 -76 -19 -72 -10 -121 -34 -114 -54 2 -7 16 -13 30 -15 15 -2 27 -7 27
-10 0 -4 24 -9 53 -10 28 -1 65 -7 80 -13 31 -13 119 -1 234 32 62 17 64 17
124 -4 l61 -22 -6 -229 c-4 -127 -8 -231 -10 -233 -1 -2 -52 -6 -112 -9 -77
-5 -114 -11 -127 -22 -17 -15 -16 -17 9 -38 14 -13 42 -28 61 -35 111 -36 98
-49 -51 -49 -101 0 -126 -7 -126 -37 0 -13 80 -40 135 -45 34 -4 -124 -44
-213 -55 -29 -3 -52 -9 -52 -13 0 -9 74 -20 149 -21 49 -1 52 -2 26 -10 -20
-6 -4 -7 49 -4 44 3 77 3 74 0 -3 -3 -43 -19 -88 -35 -68 -24 -94 -28 -149
-25 -69 5 -101 0 -101 -15 0 -19 63 -41 155 -55 129 -19 139 -26 78 -52 -129
-55 -194 -49 -323 32 -30 19 -75 45 -100 59 -25 13 -137 85 -250 159 -113 75
-244 161 -292 192 l-87 57 -3 85 c-2 47 -1 87 1 89 2 2 303 4 668 4 l663 0 0
21 0 22 -532 -7 c-293 -3 -592 -9 -664 -12 l-131 -6 -5 23 c-3 18 -2 1313 1
1452 1 24 16 37 119 103 64 42 162 105 217 141 55 35 163 105 240 155 77 50
217 141 310 202 299 197 504 326 517 326 4 0 45 -26 90 -57z m-552 -1104 c0
-6 -4 -7 -10 -4 -5 3 -10 11 -10 16 0 6 5 7 10 4 6 -3 10 -11 10 -16z m197 5
c-3 -3 -12 -4 -19 -1 -8 3 -5 6 6 6 11 1 17 -2 13 -5z m-200 -121 c-4 -3 -10
-3 -14 0 -3 4 0 7 7 7 7 0 10 -3 7 -7z m-180 -385 c-3 -8 -6 -5 -6 6 -1 11 2
17 5 13 3 -3 4 -12 1 -19z m583 -69 c0 -5 -4 -9 -10 -9 -5 0 -10 7 -10 16 0 8
5 12 10 9 6 -3 10 -10 10 -16z m-468 -41 c-7 -7 -12 -8 -12 -2 0 14 12 26 19
19 2 -3 -1 -11 -7 -17z m628 -50 c-17 -14 -26 -16 -36 -7 -18 15 -18 28 3 52
17 18 18 18 36 -4 18 -23 18 -24 -3 -41z m-567 -35 c-7 -2 -19 -2 -25 0 -7 3
-2 5 12 5 14 0 19 -2 13 -5z m-113 -69 c0 -2 -9 -4 -20 -4 -11 0 -20 4 -20 9
0 5 9 7 20 4 11 -3 20 -7 20 -9z m1065 6 c4 -6 -7 -10 -27 -10 -25 0 -29 3
-18 10 19 13 37 13 45 0z m-361 -16 c9 -3 16 -12 16 -20 0 -17 -24 -29 -73
-38 -30 -6 -39 -4 -44 10 -13 34 54 66 101 48z m403 -1 c-4 -3 -10 -3 -14 0
-3 4 0 7 7 7 7 0 10 -3 7 -7z m-581 -70 c4 -13 3 -27 0 -30 -10 -10 -60 43
-52 55 11 17 46 1 52 -25z m-459 -80 c-4 -3 -10 -3 -14 0 -3 4 0 7 7 7 7 0 10
-3 7 -7z m33 -3 c0 -5 -4 -10 -10 -10 -5 0 -10 5 -10 10 0 6 5 10 10 10 6 0
10 -4 10 -10z m1857 -306 c-3 -3 -12 -4 -19 -1 -8 3 -5 6 6 6 11 1 17 -2 13
-5z m1 -24 c9 0 12 -24 12 -84 0 -46 -3 -91 -6 -100 -7 -18 -120 -94 -275
-186 -42 -24 -67 -41 -239 -152 -236 -152 -325 -198 -382 -197 -51 0 -150 30
-155 46 -4 11 75 33 121 33 12 0 46 7 74 15 85 26 64 44 -55 49 -97 4 -243 56
-243 87 0 6 5 7 11 3 17 -10 242 -5 253 6 14 14 6 19 -54 30 -29 6 -58 14 -64
19 -6 5 -45 12 -86 16 -41 4 -77 9 -79 10 -2 2 14 11 35 20 23 9 40 12 42 6 2
-5 10 -7 18 -4 13 5 13 7 3 14 -9 5 3 12 34 21 46 12 59 24 35 33 -7 2 -56 9
-109 15 -53 5 -107 14 -120 19 -23 9 -23 10 9 16 17 4 32 11 32 16 0 5 6 6 14
3 8 -3 17 -1 21 5 3 6 16 11 28 12 12 0 16 3 9 6 -17 7 24 53 47 53 14 0 14 2
1 10 -8 5 -17 5 -20 1 -3 -5 -60 -6 -127 -3 l-123 5 0 56 c0 31 -3 66 -6 78
-6 22 -4 22 92 25 55 2 356 2 669 1 314 -2 576 -3 583 -3z"/>
<path d="M1953 2573 c4 -3 10 -3 14 0 3 4 0 7 -7 7 -7 0 -10 -3 -7 -7z"/>
<path d="M2270 1840 c0 -7 3 -10 7 -7 3 4 3 10 0 14 -4 3 -7 0 -7 -7z"/>
<path d="M1353 1403 c9 -2 25 -2 35 0 9 3 1 5 -18 5 -19 0 -27 -2 -17 -5z"/>
<path d="M1458 1403 c6 -2 18 -2 25 0 6 3 1 5 -13 5 -14 0 -19 -2 -12 -5z"/>
<path d="M1663 1333 c4 -3 10 -3 14 0 3 4 0 7 -7 7 -7 0 -10 -3 -7 -7z"/>
<path d="M1763 1333 c4 -3 10 -3 14 0 3 4 0 7 -7 7 -7 0 -10 -3 -7 -7z"/>
<path d="M1213 1253 c4 -3 10 -3 14 0 3 4 0 7 -7 7 -7 0 -10 -3 -7 -7z"/>
<path d="M1473 1253 c15 -2 37 -2 50 0 12 2 0 4 -28 4 -27 0 -38 -2 -22 -4z"/>
<path d="M1318 1143 c7 -3 16 -2 19 1 4 3 -2 6 -13 5 -11 0 -14 -3 -6 -6z"/>
<path d="M1270 1069 c0 -6 7 -9 15 -5 9 3 15 0 15 -9 0 -8 7 -15 17 -15 14 0
14 2 -2 20 -20 22 -45 27 -45 9z"/>
<path d="M1335 1030 c-4 -6 -11 -8 -16 -5 -5 4 -9 1 -9 -4 0 -6 12 -11 28 -11
19 0 23 3 13 9 -11 7 -11 9 0 14 9 3 10 6 2 6 -6 1 -15 -4 -18 -9z"/>
<path d="M1225 1010 c-3 -5 1 -10 9 -10 9 0 16 5 16 10 0 6 -4 10 -9 10 -6 0
-13 -4 -16 -10z"/>
<path d="M1678 1253 c12 -2 30 -2 40 0 9 3 -1 5 -23 4 -22 0 -30 -2 -17 -4z"/>
<path d="M1868 903 c7 -3 16 -2 19 1 4 3 -2 6 -13 5 -11 0 -14 -3 -6 -6z"/>
</g>
</svg>
